<?xml version="1.0" encoding="UTF-8" standalone="no"?>
<!-- Created with Inkscape (http://www.inkscape.org/) -->

<svg
   xmlns:dc="http://purl.org/dc/elements/1.1/"
   xmlns:cc="http://creativecommons.org/ns#"
   xmlns:rdf="http://www.w3.org/1999/02/22-rdf-syntax-ns#"
   xmlns:svg="http://www.w3.org/2000/svg"
   xmlns="http://www.w3.org/2000/svg"
   xmlns:sodipodi="http://sodipodi.sourceforge.net/DTD/sodipodi-0.dtd"
   xmlns:inkscape="http://www.inkscape.org/namespaces/inkscape"
   width="210mm"
   height="297mm"
   viewBox="0 0 210 297"
   version="1.1"
   id="svg8"
   inkscape:version="0.92.3 (2405546, 2018-03-11)"
   sodipodi:docname="rych.svg">
  <defs
     id="defs2" />
  <sodipodi:namedview
     id="base"
     pagecolor="#ffffff"
     bordercolor="#666666"
     borderopacity="1.0"
     inkscape:pageopacity="0.0"
     inkscape:pageshadow="2"
     inkscape:zoom="1.4"
     inkscape:cx="273.36765"
     inkscape:cy="843.7042"
     inkscape:document-units="mm"
     inkscape:current-layer="layer1"
     showgrid="false"
     inkscape:window-width="1920"
     inkscape:window-height="1028"
     inkscape:window-x="1272"
     inkscape:window-y="-8"
     inkscape:window-maximized="1"
     inkscape:snap-smooth-nodes="true"
     inkscape:snap-midpoints="true" />
  <metadata
     id="metadata5">
    <rdf:RDF>
      <cc:Work
         rdf:about="">
        <dc:format>image/svg+xml</dc:format>
        <dc:type
           rdf:resource="http://purl.org/dc/dcmitype/StillImage" />
        <dc:title></dc:title>
      </cc:Work>
    </rdf:RDF>
  </metadata>
  <g
     inkscape:label="Vrstva 1"
     inkscape:groupmode="layer"
     id="layer1">
    <g
       id="g3925"
       transform="translate(-1.1339286,-7.9375)">
      <path
         sodipodi:nodetypes="scccccs"
         inkscape:connector-curvature="0"
         id="path3748"
         transform="scale(0.26458333)"
         d="M 383.85742,94.689453 C 230.43713,94.689978 106.06585,219.06213 106.06641,372.48242 c 0.0376,52.41273 14.90234,103.74549 42.87695,148.06836 L 382.5,361.24023 617.78906,521.73242 c 28.53617,-44.55751 43.75335,-96.33807 43.86133,-149.25 C 661.65095,219.06137 537.27847,94.688895 383.85742,94.689453 Z"
         style="fill:#962428;fill-opacity:1;stroke-width:0.97864759" />
      <path
         sodipodi:nodetypes="ccccccc"
         inkscape:connector-curvature="0"
         id="path3752"
         transform="scale(0.26458333)"
         d="m 382.63867,117.61133 c -140.5496,1.9e-4 -254.48722,113.93868 -254.48633,254.48828 0.0326,48.07085 13.67976,95.14941 39.36133,135.78516 L 382.5,361.24023 597.51367,507.90234 c 25.77274,-40.61433 39.5072,-87.7013 39.61133,-135.80273 8.9e-4,-140.5496 -113.93673,-254.48809 -254.48633,-254.48828 z"
         style="fill:#1d1d1d;fill-opacity:1;stroke-width:0.97269857" />
      <path
         sodipodi:nodetypes="ccccccc"
         inkscape:connector-curvature="0"
         id="path3746"
         transform="scale(0.26458333)"
         d="m 382.84766,126.00391 c -135.84707,-3e-4 -245.97295,110.12558 -245.97266,245.97265 0.0361,46.35254 13.16884,91.75155 37.88477,130.96485 L 382.5,361.24023 590.57422,503.16992 C 615.45869,463.92911 628.7192,418.44233 628.82031,371.97656 628.8206,236.1295 518.69472,126.00362 382.84766,126.00391 Z"
         style="fill:#ddc75d;fill-opacity:1;stroke-width:2.21867871" />
      <path
         sodipodi:nodetypes="ccccccc"
         inkscape:connector-curvature="0"
         id="path3754"
         transform="scale(0.26458333)"
         d="m 382.5,152.51953 c -122.09504,-4.7e-4 -221.07274,98.97723 -221.07227,221.07227 0.0588,40.95219 11.49153,81.08318 33.02344,115.91797 L 382.5,361.24023 570.45703,489.44727 C 592.01006,454.64005 603.47435,414.53159 603.57227,373.5918 603.57274,251.49676 504.59504,152.51906 382.5,152.51953 Z"
         style="fill:#1d1d1d;fill-opacity:1;stroke-width:1.12956202" />
    </g>
  </g>
</svg>
